<svg width="60" height="60" viewBox="0 0 40 40" fill="none" xmlns="http://www.w3.org/2000/svg">

<style>
    #mouseWheel{
        animation:mouseWheelScroll 1s linear infinite;
    }
    @keyframes mouseWheelScroll{
        0%{transform: translateY(-2px);}
        50%{transform: translateY(5px);}
        100%{transform: translateY(-2px);}
    }
</style>


<path id="mouseWheel" d="M20 8.20312C19.558 8.20312 19.134 8.37598 18.8215 8.68365C18.5089 8.99133 18.3333 9.40863 18.3333 9.84375V16.4062C18.3333 16.8414 18.5089 17.2587 18.8215 17.5663C19.134 17.874 19.558 18.0469 20 18.0469C20.442 18.0469 20.866 17.874 21.1785 17.5663C21.4911 17.2587 21.6667 16.8414 21.6667 16.4062V9.84375C21.6667 9.40863 21.4911 8.99133 21.1785 8.68365C20.866 8.37598 20.442 8.20312 20 8.20312Z" fill="#333333"/>
<path fill-rule="evenodd" clip-rule="evenodd" d="M6.66667 13.125C6.66667 9.64403 8.07142 6.30564 10.5719 3.84422C13.0724 1.38281 16.4638 0 20 0C23.5362 0 26.9276 1.38281 29.4281 3.84422C31.9286 6.30564 33.3333 9.64403 33.3333 13.125V26.25C33.3333 29.731 31.9286 33.0694 29.4281 35.5308C26.9276 37.9922 23.5362 39.375 20 39.375C16.4638 39.375 13.0724 37.9922 10.5719 35.5308C8.07142 33.0694 6.66667 29.731 6.66667 26.25V13.125ZM30 13.125V26.25C30 28.8607 28.9464 31.3645 27.0711 33.2106C25.1957 35.0566 22.6522 36.0938 20 36.0938C17.3478 36.0938 14.8043 35.0566 12.9289 33.2106C11.0536 31.3645 10 28.8607 10 26.25V13.125C10 10.5143 11.0536 8.01048 12.9289 6.16442C14.8043 4.31836 17.3478 3.28125 20 3.28125C22.6522 3.28125 25.1957 4.31836 27.0711 6.16442C28.9464 8.01048 30 10.5143 30 13.125Z" fill="#333333"/>
</svg>
